<mxfile host="app.diagrams.net" modified="2023-10-28T21:59:17.589Z" agent="Mozilla/5.0 (Windows NT 10.0; Win64; x64; rv:109.0) Gecko/20100101 Firefox/117.0" version="21.6.6" etag="A2wXcA6yFuLWtJsAA0mH" type="github">
  <diagram name="Page-1" id="LFyT438s_KNHEl_grcNH">
    <mxGraphModel>
      <root>
        <mxCell id="0" />
        <mxCell id="1" parent="0" />
      </root>
    </mxGraphModel>
  </diagram>
</mxfile>
